<svg width="154" height="17" viewBox="0 0 154 17" fill="none" xmlns="http://www.w3.org/2000/svg">
<path d="M16.056 15.84H11.808L10.704 12.264H5.28L4.152 15.84H0L5.568 0H10.512L16.056 15.84ZM6.048 9.456H9.936L7.992 3.048L6.048 9.456Z" fill="#2D2D2D"/>
<path d="M17.6102 15.84V3.84H21.2582L21.4742 7.968L21.0182 7.512C21.1782 6.648 21.4582 5.928 21.8582 5.352C22.2742 4.776 22.7862 4.344 23.3942 4.056C24.0182 3.752 24.7142 3.6 25.4822 3.6C26.3142 3.6 27.0342 3.76 27.6422 4.08C28.2662 4.4 28.7542 4.872 29.1062 5.496C29.4582 6.12 29.6342 6.904 29.6342 7.848V15.84H25.5542V8.928C25.5542 8.096 25.3942 7.52 25.0742 7.2C24.7542 6.88 24.3462 6.72 23.8502 6.72C23.4662 6.72 23.1062 6.816 22.7702 7.008C22.4342 7.184 22.1702 7.472 21.9782 7.872C21.7862 8.272 21.6902 8.808 21.6902 9.48V15.84H17.6102Z" fill="#2D2D2D"/>
<path d="M36.549 16.08C35.733 16.08 35.013 15.944 34.389 15.672C33.781 15.384 33.301 14.928 32.949 14.304C32.597 13.68 32.421 12.864 32.421 11.856V3.84H36.501V10.896C36.501 11.664 36.653 12.2 36.957 12.504C37.261 12.808 37.693 12.96 38.253 12.96C38.541 12.96 38.813 12.912 39.069 12.816C39.325 12.704 39.549 12.544 39.741 12.336C39.933 12.112 40.077 11.832 40.173 11.496C40.285 11.144 40.341 10.736 40.341 10.272V3.84H44.421V15.84H40.773L40.653 13.584C40.269 14.432 39.733 15.064 39.045 15.48C38.357 15.88 37.525 16.08 36.549 16.08Z" fill="#2D2D2D"/>
<path d="M55.1524 3.84H59.3764L55.0564 15.84H50.1844L45.8644 3.84H50.1604L52.6324 12.984L55.1524 3.84Z" fill="#2D2D2D"/>
<path d="M67.2437 8.232C67.2437 7.672 67.0837 7.232 66.7637 6.912C66.4597 6.576 66.0437 6.408 65.5157 6.408C64.9877 6.408 64.5317 6.544 64.1477 6.816C63.7797 7.072 63.5237 7.536 63.3797 8.208L59.9237 7.392C60.1477 6.24 60.7397 5.32 61.6997 4.632C62.6597 3.944 64.0117 3.6 65.7557 3.6C66.9237 3.6 67.9157 3.776 68.7317 4.128C69.5637 4.464 70.1957 4.976 70.6277 5.664C71.0757 6.336 71.2997 7.168 71.2997 8.16V12.552C71.2997 13.176 71.5797 13.488 72.1397 13.488C72.4277 13.488 72.6597 13.456 72.8357 13.392L72.5957 15.72C72.1157 15.944 71.5317 16.056 70.8437 16.056C70.2197 16.056 69.6677 15.96 69.1877 15.768C68.7077 15.56 68.3317 15.256 68.0597 14.856C67.7877 14.44 67.6517 13.92 67.6517 13.296V13.152L68.1077 12.984C68.1077 13.672 67.8997 14.248 67.4837 14.712C67.0837 15.176 66.5557 15.52 65.8997 15.744C65.2597 15.968 64.5877 16.08 63.8837 16.08C63.0677 16.08 62.3557 15.952 61.7477 15.696C61.1397 15.44 60.6677 15.072 60.3317 14.592C60.0117 14.096 59.8517 13.488 59.8517 12.768C59.8517 11.904 60.1077 11.192 60.6197 10.632C61.1477 10.056 61.9717 9.656 63.0917 9.432L67.6277 8.496L67.6037 10.656L65.2997 11.136C64.8197 11.232 64.4597 11.376 64.2197 11.568C63.9957 11.744 63.8837 12.016 63.8837 12.384C63.8837 12.736 64.0117 13 64.2677 13.176C64.5237 13.352 64.8277 13.44 65.1797 13.44C65.4517 13.44 65.7077 13.4 65.9477 13.32C66.2037 13.24 66.4277 13.12 66.6197 12.96C66.8117 12.784 66.9637 12.568 67.0757 12.312C67.1877 12.056 67.2437 11.752 67.2437 11.4V8.232Z" fill="#2D2D2D"/>
<path d="M89.0381 0V15.84H84.9101V0H89.0381ZM78.8621 0V15.84H74.7341V0H78.8621ZM87.1181 6.264V9.456H76.7501V6.264H87.1181Z" fill="#2D2D2D"/>
<path d="M97.9003 3.6C99.1643 3.6 100.268 3.848 101.212 4.344C102.172 4.824 102.916 5.536 103.444 6.48C103.988 7.408 104.26 8.528 104.26 9.84C104.26 11.152 103.988 12.28 103.444 13.224C102.916 14.152 102.172 14.864 101.212 15.36C100.268 15.84 99.1643 16.08 97.9003 16.08C96.6683 16.08 95.5723 15.84 94.6123 15.36C93.6523 14.864 92.9003 14.152 92.3563 13.224C91.8283 12.28 91.5643 11.152 91.5643 9.84C91.5643 8.528 91.8283 7.408 92.3563 6.48C92.9003 5.536 93.6523 4.824 94.6123 4.344C95.5723 3.848 96.6683 3.6 97.9003 3.6ZM97.9003 6.504C97.4363 6.504 97.0363 6.616 96.7003 6.84C96.3643 7.064 96.1083 7.424 95.9323 7.92C95.7563 8.416 100.156 9.056 100.156 9.84C100.156 10.624 95.7563 11.264 95.9323 11.76C96.1083 12.24 96.3643 12.6 96.7003 12.84C97.0363 13.064 97.4363 13.176 97.9003 13.176C98.3803 13.176 98.7883 13.064 99.1243 12.84C99.4603 12.6 99.7163 12.24 99.8923 11.76C100.068 11.264 100.156 10.624 100.156 9.84C100.156 9.056 100.068 8.416 99.8923 7.92C99.7163 7.424 99.4603 7.064 99.1243 6.84C98.7883 6.616 98.3803 6.504 97.9003 6.504Z" fill="#2D2D2D"/>
<path d="M106.555 15.84V3.84H110.203L110.324 6.168C110.708 5.32 111.243 4.68 111.932 4.248C112.636 3.816 113.443 3.6 114.355 3.6C115.252 3.6 116.028 3.8 116.684 4.2C117.34 4.6 117.827 5.192 118.147 5.976C118.403 5.448 118.731 5.008 119.132 4.656C119.548 4.304 120.02 4.04 120.548 3.864C121.076 3.688 121.619 3.6 122.179 3.6C122.979 3.6 123.683 3.76 124.291 4.08C124.899 4.384 125.38 4.856 125.731 5.496C126.1 6.12 126.284 6.904 126.284 7.848V15.84H122.203V8.784C122.203 8.016 122.051 7.48 121.747 7.176C121.459 6.872 121.068 6.72 120.572 6.72C120.172 6.72 119.803 6.824 119.467 7.032C119.147 7.224 118.9 7.52 118.724 7.92C118.548 8.32 118.46 8.824 118.46 9.432V15.84H114.38V8.784C114.38 8.016 114.228 7.48 113.924 7.176C113.619 6.872 113.228 6.72 112.747 6.72C112.38 6.72 112.027 6.816 111.691 7.008C111.371 7.2 111.116 7.504 110.924 7.92C110.731 8.32 110.635 8.848 110.635 9.504V15.84H106.555Z" fill="#2D2D2D"/>
<path d="M135.005 16.08C133.677 16.08 132.525 15.832 131.549 15.336C130.589 14.84 129.845 14.128 129.317 13.2C128.789 12.272 128.525 11.152 128.525 9.84C128.525 8.528 128.789 7.408 129.317 6.48C129.845 5.552 130.581 4.84 131.525 4.344C132.485 3.848 133.581 3.6 134.813 3.6C136.077 3.6 137.149 3.848 138.029 4.344C138.925 4.824 139.605 5.496 140.069 6.36C140.533 7.208 140.765 8.184 140.765 9.288C140.765 9.576 140.757 9.864 140.741 10.152C140.725 10.44 140.701 10.68 140.669 10.872H131.165V8.688H138.869L136.925 9.432C136.925 8.472 136.749 7.736 136.397 7.224C136.061 6.712 135.533 6.456 134.813 6.456C134.301 6.456 133.861 6.576 133.493 6.816C133.141 7.056 132.869 7.432 132.677 7.944C132.501 8.456 132.413 9.112 132.413 9.912C132.413 10.696 132.517 11.336 132.725 11.832C132.933 12.312 133.229 12.664 133.613 12.888C133.997 13.096 134.461 13.2 135.005 13.2C135.613 13.2 136.093 13.08 136.445 12.84C136.813 12.6 137.085 12.264 137.261 11.832L140.525 12.912C140.301 13.6 139.909 14.184 139.349 14.664C138.805 15.128 138.149 15.48 137.381 15.72C136.629 15.96 135.837 16.08 135.005 16.08Z" fill="#2D2D2D"/>
<path d="M148.088 16.08C146.888 16.08 145.768 15.888 144.728 15.504C143.704 15.104 142.856 14.536 142.184 13.8L144.104 11.544C144.504 12.056 145.032 12.488 145.688 12.84C146.36 13.176 147.104 13.344 147.92 13.344C148.416 13.344 148.824 13.272 149.144 13.128C149.464 12.984 149.624 12.76 149.624 12.456C149.624 12.232 149.544 12.056 149.384 11.928C149.224 11.784 148.904 11.664 148.424 11.568L146.744 11.232C145.24 10.928 144.168 10.48 143.528 9.888C142.904 9.28 142.592 8.488 142.592 7.512C142.592 6.856 142.792 6.232 143.192 5.64C143.592 5.032 144.208 4.544 145.04 4.176C145.872 3.792 146.936 3.6 148.232 3.6C149.448 3.6 150.52 3.776 151.448 4.128C152.376 4.48 153.112 4.992 153.656 5.664L151.712 7.872C151.328 7.392 150.832 7.016 150.224 6.744C149.616 6.472 149.008 6.336 148.4 6.336C148.016 6.336 147.688 6.376 147.416 6.456C147.16 6.52 146.968 6.616 146.84 6.744C146.712 6.872 146.648 7.032 146.648 7.224C146.648 7.432 146.744 7.616 146.936 7.776C147.144 7.92 147.52 8.048 148.064 8.16L150.248 8.592C151.48 8.816 152.368 9.224 152.912 9.816C153.456 10.408 153.728 11.12 153.728 11.952C153.728 12.736 153.52 13.44 153.104 14.064C152.688 14.688 152.064 15.184 151.232 15.552C150.4 15.904 149.352 16.08 148.088 16.08Z" fill="#2D2D2D"/>
</svg>
